<?xml version="1.0" encoding="UTF-8"?>
<svg width="800px" height="800px" fill="#000000" version="1.1" viewBox="0 0 512 512" xml:space="preserve" xmlns="http://www.w3.org/2000/svg">

	
		<path d="m469.33 64v-21.333c0-23.531-19.136-42.667-42.666-42.667h-341.33c-23.53 0-42.666 19.136-42.666 42.667v21.333c0 23.531 19.136 42.667 42.667 42.667v128c-23.531 0-42.667 19.136-42.667 42.667v21.333c0 23.531 19.136 42.667 42.667 42.667v128c-1e-3 23.53 19.135 42.666 42.666 42.666h256c23.531 0 42.667-19.136 42.667-42.667v-128c23.531 0 42.667-19.136 42.667-42.667v-21.333c0-23.531-19.136-42.667-42.667-42.667v-128c23.53 1e-3 42.666-19.135 42.666-42.666zm-192 341.33h-42.667c-11.797 0-21.333-9.557-21.333-21.333s9.536-21.333 21.333-21.333h42.667c11.797 0 21.333 9.557 21.333 21.333s-9.535 21.333-21.333 21.333zm149.36-106.67h-341.36v-21.333h341.33l0.022 21.333zm-213.36-149.33c0-11.776 9.536-21.333 21.333-21.333h42.667c11.797 0 21.333 9.557 21.333 21.333s-9.536 21.333-21.333 21.333h-42.667c-11.797 1e-3 -21.333-9.557-21.333-21.333zm192-85.333h-320v-21.333h341.33l0.022 21.333h-21.355z"/>
	

</svg>
