<?xml version="1.0" encoding="UTF-8"?>
<svg width="800" height="800" version="1.1" viewBox="0 0 512 512" xmlns="http://www.w3.org/2000/svg">
 <path d="m257.88 229.72q19.372-38.546 27.621-82.794 12.206-63.585 23.753-83.585 16.229-28.109 37.628-35.213 21.94-6.7927 41.4 4.4424 16.757 9.6747 20.763 31.448 4.0063 21.773-11.598 48.8-14.044 24.325-53.918 59.683-39.021 35.13-63.486 70.015 40.653-1.7545 80.042-15.05 61.412-21.482 85.18-21.453 23.768 0.0285 42.147 10.639 17.838 10.299 22.552 29.597 5.5668 19.07-4.108 35.827-11.547 20-38.436 25.377-26.889 5.3771-107.29-20.142-46.928-14.841-81.362-18.866 19.682 30.823 55.854 61.798 58.541 49.655 68.242 79.04 10.242 29.697-1.9294 50.779-9.3626 16.217-28.661 20.931-18.758 5.0262-34.975-4.3364-16.217-9.3626-29.663-32.261-12.906-22.587-23.638-81.396-6.8703-39.283-26.424-81.563-16.708 31.436-26.266 74.206-17.366 75.02-30.786 98.264-12.483 21.622-34.195 29.267-21.4 7.1048-35.994-1.3216-20-11.547-27.166-36.586-4.7977-17.905 9.5582-42.771 14.98-25.946 48.323-54.985 33.655-29.579 44.7-41.221 11.358-12.182 29.665-37.649-44.064 2.6684-82.828 14.883-65.051 21.543-91.918 21.888-19.048 0.53454-34.183-8.2039-18.379-10.611-24.174-30.534-5.7952-19.923 2.9432-35.058 7.8022-13.514 27.04-21.867 20.09-8.5816 47.87-5.5159 18.34 1.9397 76.474 21.089 37.571 12.322 77.266 17.222-20.763-31.448-56.623-62.962-58.373-52.441-67.496-72.843-14.026-31.882 0.64219-57.288 8.4263-14.595 27.184-19.621 19.611-5.2547 35.827 4.108 17.838 10.299 31.285 33.198 13.447 22.899 23.203 74.659 10.069 51.219 29.957 87.928z" stroke-width="106.52" aria-label="*"/>
</svg>
