<svg fill="none" height="800" viewBox="0 0 24 24" width="800" xmlns="http://www.w3.org/2000/svg"><path d="m2.99902 3 17.99998 18m-11.1557-11.08636c-.52264.53996-.84428 1.27556-.84428 2.08636 0 1.6569 1.34318 3 2.99998 3 .8225 0 1.5677-.331 2.1096-.867m-7.60958-7.48585c-1.8993 1.25319-3.34597 3.13679-4.04199 5.35285 1.27425 4.0571 5.06456 7 9.54217 7 1.9889 0 3.8422-.5806 5.3996-1.5816m-6.3998-12.36901c.329-.03266.6627-.04939 1.0002-.04939 4.4777 0 8.268 2.94291 9.5422 7-.2807.894-.6837 1.7338-1.1892 2.5" stroke="#000" stroke-linecap="round" stroke-linejoin="round" stroke-width="2"/></svg>