<?xml version="1.0" encoding="UTF-8"?>
<svg width="800px" height="800px" fill="none" version="1.1" viewBox="0 0 24 24" xmlns="http://www.w3.org/2000/svg">
 <path d="m7.0861 3.4444c-1.2142 9.41e-4 -1.8506 0.016291-2.3439 0.26634-0.46231 0.23433-0.83817 0.60824-1.0737 1.0682-0.26779 0.52284-0.26779 1.2073-0.26779 2.5762v11.732c0 1.3689 0 2.0534 0.26779 2.5762 0.23555 0.45988 0.61141 0.83384 1.0737 1.0681 0.52556 0.26642 1.2136 0.26642 2.5896 0.26642h9.3364c1.376 0 2.0641 0 2.5896-0.26642 0.46227-0.23428 0.83819-0.60824 1.0737-1.0681 0.26781-0.52282 0.26781-1.2073 0.26781-2.5762v-11.732c0-1.3689 0-2.0533-0.26781-2.5762-0.2355-0.45991-0.61141-0.83383-1.0737-1.0682-0.49335-0.25005-1.1297-0.2654-2.3439-0.26634m-9.8278 0v2.4441h9.8278v-2.4441m-9.8278 0v-0.358c0-0.55332 0.22095-1.084 0.61424-1.4752 0.39328-0.39124 0.9267-0.61105 1.4829-0.61105h5.6335c0.55613 0 1.0897 0.21981 1.4829 0.61105s0.61424 0.92189 0.61424 1.4752v0.358m-1.2285 8.5546h-3.6854m3.6854 4.8884h-3.6854m-3.6854-4.8884h0.012285m-0.012285 4.8884h0.012285" stroke="#000" stroke-linecap="round" stroke-linejoin="round" stroke-width="2"/>
</svg>
