<svg height="800" viewBox="0 1 800 800" width="800" xmlns="http://www.w3.org/2000/svg"><g stroke-width=".026875" transform="matrix(37.209278 0 0 37.209278 -46.511598 -30.821128)"><path d="m17.416 2.62412c.3447-.22977.4378-.69542.208-1.04007-.2297-.34464-.6954-.43777-1.04-.20801l-2.9153 1.94351c-.516-.20612-1.079-.31949-1.6686-.31949s-1.1527.11339-1.6687.31956l-2.91537-1.94358c-.34465-.22976-.8103-.13663-1.04007.20801-.22976.34465-.13663.8103.20801 1.04007l2.35973 1.57315c-.69539.64382-1.18706 1.50454-1.36753 2.47463.43511-.11217.89132-.17184 1.36146-.17184h6.12497c.4702 0 .9264.05967 1.3615.17184-.1805-.97014-.6722-1.8309-1.3677-2.47473z"/><path d="m1.25 14.0001c0-.4142.33579-.75.75-.75h3v-1.3125c0-.8357.26034-1.6106.70435-2.24801l-2.48294-.99335c-.38457-.15386-.57161-.59035-.41775-.97493s.59035-.57161.97493-.41775l3.13655 1.25485c.5911-.35453 1.28293-.55835 2.02236-.55835h6.125c.7394 0 1.4313.20382 2.0224.55835l3.1365-1.25485c.3846-.15386.8211.03317.9749.41775.1539.38458-.0331.82107-.4177.97493l-2.4829.99335c.444.63741.7043 1.41231.7043 2.24801v1.3125h3c.4142 0 .75.3358.75.75s-.3358.75-.75.75h-3v.25c0 1.1807-.2923 2.2931-.8085 3.2688l2.5871 1.035c.3846.1539.5716.5904.4177.975-.1538.3845-.5903.5716-.9749.4177l-2.8926-1.1572c-1.1314 1.327-2.7499 2.2261-4.5788 2.421v-6.9603c0-.4143-.3358-.75-.75-.75s-.75.3357-.75.75v6.9603c-1.82891-.1949-3.44735-1.094-4.57885-2.421l-2.89256 1.1572c-.38458.1539-.82107-.0332-.97493-.4177-.15386-.3846.03318-.8211.41775-.975l2.58711-1.035c-.51621-.9757-.80852-2.0881-.80852-3.2688v-.25h-3c-.41421 0-.75-.3358-.75-.75z"/></g></svg>