<?xml version="1.0" encoding="UTF-8"?>
<svg width="800px" height="800px" fill="none" version="1.1" viewBox="0 0 24 24" xmlns="http://www.w3.org/2000/svg">
 <path d="m8 5c-0.98835 7.7e-4 -1.5064 0.01333-1.908 0.21794-0.37633 0.19174-0.68229 0.4977-0.87403 0.87403-0.21799 0.42782-0.21799 0.98787-0.21799 2.108v9.6c0 1.1201 0 1.6802 0.21799 2.108 0.19174 0.3763 0.4977 0.6823 0.87403 0.874 0.42782 0.218 0.98787 0.218 2.108 0.218h7.6c1.1201 0 1.6802 0 2.108-0.218 0.3763-0.1917 0.6823-0.4977 0.874-0.874 0.218-0.4278 0.218-0.9879 0.218-2.108v-9.6c0-1.1201 0-1.6802-0.218-2.108-0.1917-0.37633-0.4977-0.68229-0.874-0.87403-0.4016-0.20461-0.9196-0.21717-1.908-0.21794m-8 0v2h8v-2m-8 0v-0.29294c0-0.45276 0.17986-0.88697 0.5-1.2071s0.75435-0.5 1.2071-0.5h4.5858c0.4527 0 0.887 0.17986 1.2071 0.5s0.5 0.75435 0.5 1.2071v0.29294m-1 7h-3m3 4h-3m-3-4h0.01m-0.01 4h0.01" stroke="#000" stroke-linecap="round" stroke-linejoin="round" stroke-width="2"/>
</svg>
