<svg height="800" viewBox="0 0 512 512" width="800" xmlns="http://www.w3.org/2000/svg"><path d="m213.33333 0c117.82166 0 213.33334 95.51168 213.33334 213.33333 0 117.82038-95.51168 213.33334-213.33334 213.33334-117.82037 0-213.33333-95.51296-213.33333-213.33334 0-117.82165 95.51296-213.33333 213.33333-213.33333zm21.38006 192h-42.66667v128h42.66667zm-21.16331-90.66667c-15.55392 0-26.83669 11.22027-26.83669 26.37078 0 15.76341 10.98538 26.96256 26.83669 26.96256 15.23499 0 26.49664-11.19915 26.49664-26.66667 0-15.4464-11.26165-26.66667-26.49664-26.66667z" fill-rule="evenodd" transform="matrix(1.2 0 0 1.2 .0000004 .0000004)"/></svg>