<svg height="800" viewBox="-6 0 32 32" width="800" xmlns="http://www.w3.org/2000/svg"><path d="m16.054734 8.6511041h5.3941c1.29253 0 2.362505 1.0257493 2.362505 2.3625049v8.11469h-12.8397v-9.4514456c-.446536-.1341035-.84742-.3124326-1.1142005-.5792131-.044226 0-.044226-.044226-.089878-.044226 0 0 0 .044226-.044226.044226-.3124322.2682071-.6690905.4465363-1.0699745.5792131v9.4514456h-12.8396997v-8.11469c0-1.3381822 1.0257493-2.3625049 2.3182791-2.3625049h5.4397528c-.6248654-.3124327-1.2040785-.7575423-1.6948404-1.1598529-2.13994993-2.0514987-2.54083388-4.9047653-.8474202-6.50972772.7133167-.62486538 1.6491881-.98152371 2.6749375-.98152371 1.4708589 0 2.9873701.57921312 4.2798999 1.78329163.7133166.669091 1.3824076 1.6049625 1.7832916 2.4966083.4465364-.8916458 1.1142004-1.8275173 1.8275174-2.4966083 1.248304-1.20407851 2.853266-1.78329163 4.2799-1.78329163 1.069975 0 2.005846.35665833 2.674937.98152371 1.694841 1.60496242 1.29253 4.45822902-.891646 6.50972772-.446536.400884-1.025749.8474202-1.604962 1.1598529zm-7.9363615-1.2925298c.1783292-.4008839-.268207-2.4523826-1.739066-3.8347903-.7575423-.7133166-1.7832916-1.1142006-2.6749374-1.1142006-.2682071 0-.7133167.044226-1.0257494.3124327-.089878.089878-.3566583.2682071-.3566583.7575423 0 .5792131.3566583 1.4708589 1.2040785 2.2298278 1.069975 1.0257494 2.7648154 1.739066 4.0131195 1.739066.4008839 0 .5792131-.089878.5792131-.089878zm3.3882545 0s.222554.089878.579213.089878c1.248304 0 2.943144-.7133166 4.013119-1.739066.84742-.7575422 1.114201-1.6491881 1.114201-2.2298278 0-.4907619-.222555-.669091-.268207-.7575423-.312433-.268207-.803195-.3124327-1.069975-.3124327-.84742 0-1.917395.400884-2.674938 1.1142006-1.426633 1.3824076-1.917395 3.388254-1.69484 3.8790159v-.0442257zm-2.853267 24.6094247h-10.5214206c-1.2925298 0-2.3182791-1.02575-2.3182791-2.318279v-8.158916h12.8396997zm12.795474 0h-10.477195v-10.477195h12.8397v8.158916c0 1.292529-1.069975 2.318279-2.362505 2.318279z"/></svg>