<?xml version="1.0" encoding="UTF-8"?>
<svg width="800" height="800" version="1.1" viewBox="0 0 512 512" xmlns="http://www.w3.org/2000/svg">
 <path d="m175.21 447.86 32.726 4.8622q2.0571 15.148 11.407 22.067 12.529 9.3503 34.222 9.3503 23.376 0 36.092-9.3503t17.205-26.181q2.6181-10.285 2.4311-43.198-22.067 25.994-54.98 25.994-40.954 0-63.395-29.547-22.441-29.547-22.441-70.875 0-28.425 10.285-52.362 10.285-24.124 29.734-37.214 19.636-13.09 46.004-13.09 35.157 0 57.972 28.425v-23.937h31.043v171.67q0 46.378-9.5373 65.639-9.3503 19.449-29.921 30.669-20.384 11.22-50.305 11.22-35.531 0-57.411-16.083-21.88-15.896-21.132-48.061zm27.864-119.31q0 39.084 15.522 57.037 15.522 17.953 38.897 17.953 23.189 0 38.897-17.766 15.709-17.953 15.709-56.102 0-36.466-16.27-54.98-16.083-18.514-38.897-18.514-22.441 0-38.149 18.327-15.709 18.14-15.709 54.045z" stroke-width="31.916" aria-label="g"/>
</svg>
