<svg height="800" viewBox="0 1 800 800" width="800" xmlns="http://www.w3.org/2000/svg"><path d="m87.5 51.047919h425c48.3 0 87.5 39.2 87.5 87.500001v275a87.5 87.5 0 0 1 -87.5 87.5h-159.45l-128.7 128.65a72.9 72.9 0 0 1 -124.35-51.5v-77.15h-12.5a87.5 87.5 0 0 1 -87.5-87.5v-275c0-48.300001 39.2-87.500001 87.5-87.500001zm-12.5 87.500001v275c0 6.9 5.6 12.5 12.5 12.5h50a37.5 37.5 0 0 1 37.5 37.5v109.5l136-136a37.45 37.45 0 0 1 26.5-11h175a12.5 12.5 0 0 0 12.5-12.5v-275a12.5 12.5 0 0 0 -12.5-12.5h-425a12.5 12.5 0 0 0 -12.5 12.5zm650 100a12.5 12.5 0 0 0 -12.5-12.5h-25a37.5 37.5 0 0 1 0-75h25c48.3 0 87.5 39.2 87.5 87.5v275a87.5 87.5 0 0 1 -87.5 87.5h-12.5v77.15a72.9 72.9 0 0 1 -124.35 51.5l-114.65-114.65a37.45 37.45 0 0 1 16.3-63.75 37.45 37.45 0 0 1 36.7 10.75l111 111v-109.5a37.5 37.5 0 0 1 37.5-37.5h50a12.5 12.5 0 0 0 12.5-12.5z"/></svg>