<?xml version="1.0" encoding="UTF-8"?>
<svg width="800px" height="800px" fill="none" version="1.1" viewBox="0 0 24 24" xmlns="http://www.w3.org/2000/svg">
 <path d="m13.707 1.2929c0.3905 0.39053 0.3905 1.0237 0 1.4142l-1.3018 1.3018c4.7824 0.21193 8.5947 4.1563 8.5947 8.991 0 4.9706-4.0294 9-9 9-4.9706 0-9-4.0294-9-9 0-0.5523 0.44772-1 1-1s1 0.4477 1 1c0 3.866 3.134 7 7 7 3.866 0 7-3.134 7-7 0-3.7226-2.9058-6.7665-6.573-6.9872l1.2801 1.2801c0.3905 0.39053 0.3905 1.0237 0 1.4142-0.3905 0.39052-1.0237 0.39052-1.4142 0l-3-3c-0.18753-0.18754-0.29289-0.44189-0.29289-0.70711s0.10536-0.51957 0.29289-0.70711l3-3c0.3905-0.39052 1.0237-0.39052 1.4142 0z" clip-rule="evenodd" fill="#000" fill-rule="evenodd"/>
</svg>
