<svg height="800" viewBox="0 0 16 16" width="800" xmlns="http://www.w3.org/2000/svg"><path d="m16 7.3389818a7.82 8.3373651 0 0 0 -8-7.33517549 7.82 8.3373651 0 0 0 -8 7.33517549v1.3220374a7.82 8.3373651 0 0 0 8 7.3351748 7.82 8.3373651 0 0 0 8-7.3351748zm-1.25 0h-3a11.34 12.090246 0 0 0 -.43-2.7080444 7.6 8.1028101 0 0 0 1.75-1.0661593 6 6.3969553 0 0 1 1.65 3.7742037zm-9.18 0a9.69 10.331083 0 0 1 .37-2.2815808 8.43 8.9877222 0 0 0 2.06.2772014 8.49 9.0516918 0 0 0 2.09-.2772014 10.2 10.874824 0 0 1 .37 2.2815808zm4.92 1.3220374a9.59 10.224467 0 0 1 -.37 2.2815808 8.53 9.0943382 0 0 0 -4.18 0 9.69 10.331083 0 0 1 -.37-2.2815808zm.4-5.3307961a11.82 12.602002 0 0 0 -.89-1.727178 6.89 7.345837 0 0 1 2 1.0661593 6.57 7.0046661 0 0 1 -1.14.703665zm-2.6-1.9830562a10 10.661592 0 0 1 1.38 2.4521663 7.63 8.1347948 0 0 1 -1.67.2025702 7.56 8.0601637 0 0 1 -1.67-.2025702 9.82 10.469684 0 0 1 1.38-2.4521663zm-3.15 2.0257025a6.57 7.0046661 0 0 1 -1.14-.703665 6.89 7.345837 0 0 1 2-1.0661593 10.38 11.066732 0 0 0 -.86 1.7698243zm-2.14.1812471a7.6 8.1028101 0 0 0 1.75 1.0661593 11 11.727752 0 0 0 -.43 2.7080444h-3a6 6.3969553 0 0 1 1.68-3.7742037zm-1.72 5.1069027h3a11 11.727752 0 0 0 .43 2.7080448 7.6 8.1028101 0 0 0 -1.75 1.066158 6 6.3969553 0 0 1 -1.68-3.7742028zm3.86 3.9661128a10.38 11.066732 0 0 0 .86 1.769824 6.89 7.345837 0 0 1 -2-1.06616 6.57 7.0046661 0 0 1 1.14-.703664zm2.57 2.025702a9.82 10.469684 0 0 1 -1.38-2.452166 7.43 7.921563 0 0 1 3.34 0 9.76 10.405714 0 0 1 -1.38 2.452166zm3.15-2.025702a6.57 7.0046661 0 0 1 1.19.703664 7.24 7.7189928 0 0 1 -2 1.06616 11.48 12.239508 0 0 0 .81-1.769824zm2.14-.181248a7.6 8.1028101 0 0 0 -1.75-1.066158 10.8 11.51452 0 0 0 .43-2.7080452h3a6 6.3969553 0 0 1 -1.68 3.7742032z"/></svg>