<?xml version="1.0" encoding="UTF-8"?>
<svg width="200.1" height="200.1" version="1.1" viewBox="0 0 200.1 200.1" xml:space="preserve" xmlns="http://www.w3.org/2000/svg">
<style type="text/css">
	.st0{fill:url(#a);}
	.st1{fill:#2E0927;}
	.st2{fill:url(#b);}
	.st3{fill:none;stroke:#2E0927;stroke-width:1.5;stroke-miterlimit:10;}
	.st4{opacity:0.75;}
	.st5{fill:#2F2933;}
	.st6{fill:none;stroke:#000000;stroke-width:1.9878;stroke-miterlimit:10;}
	.st7{fill:#ED733B;}
	.st8{fill:#FFFFFF;}
	.st9{fill:none;stroke:#FFFFFF;stroke-width:1.9878;stroke-miterlimit:10;}
	.st10{fill:#128CC4;}
</style>
<g transform="translate(-19.5 5.6004)">
					<linearGradient id="a" x1="87.181" x2="219.54" y1="93.26" y2="93.26" gradientUnits="userSpaceOnUse">
						<stop stop-color="#004F8C" offset="0"/>
						<stop stop-color="#00A1D9" offset=".4944"/>
						<stop stop-color="#c39" offset="1"/>
					</linearGradient>
					<path class="st0" d="m158.1 170.8v-1.6h8.5v1.6zm-17.6 0v-1.6h6.6v1.6zm-19.4-3.5v-1.6h29.6v1.6zm35.2 0.1v-1.6h29v1.6zm-43-2.6v-2.6h21.1v0.5h19.6v1.6h-19.7v0.5zm43.8-0.5v-1.6h34.1v1.6zm-44.7-2.7v-2.6h23.6v0.5h16.8v1.6h-16.8v0.5zm44.1-0.5v-1.6h37.5v1.6zm-46.8-2.6v-2.5h28v0.5h14.9v1.6h-14.9v0.5h-28zm46-0.5v-1.6h40.4v1.6zm-48-2.6v-2.6h41.5v2.6zm48.2-0.5v-1.6h46.9v1.6zm-52.7-2.6v-2.6h48.5v2.6zm51.4-0.5v-1.6h48.8v1.6zm-53.6-2.7v-2.6l44.2 0.1v2.6zm53.2-0.4v-1.6h51.8v1.6zm-56-2.7v-2.6h46.1v2.6zm56.5-0.5v-1.5h53.9v1.6h-53.9zm-58.8-2.6v-2.6h52.6v2.6zm61.4-0.5v-1.6l52.8 0.1v1.6zm0.9-3.1v-1.6h52.3v1.6zm-62.6-2.6v-2.6h56.3v2.6zm61.6-0.5v-1.6h52.7v1.6zm-63.8-2.7v-2.5h60.1v2.6h-60.1zm65.7-0.5v-1.6h56.9v1.6zm-66.4-2.6v-2.6h60.6v2.6zm61.2-0.6v-1.6l59.2 0.1v1.6zm-62.3-2.4v-2.6h60.2v2.6zm61.7-0.1v-2.6h13.6v0.5h48.1v1.6h-48.1v0.5zm1-3.1v-2.6h12.8v0.5h51.3v1.6h-51.3v0.5zm-64.1 0v-2.6h60.1v2.6zm65.4-3.1v-2.6h11.8v0.5h51.1v1.6h-51.1v0.5zm-67.7 0v-2.6h63.9v2.6zm1.9-8.7 63-0.1v2.6l-63 0.1zm64 2.4v-2.6h13.6v0.5h49.2v1.6h-49.2v0.5zm3.3-3.1v-2.6h12.5v0.5h49.1v1.6h-49.1v0.5zm-69.2 0v-2.6h65.1v2.6zm67.3-3.1v-2.6h16.1v0.5h48.2v1.6h-48.2v0.5zm-1.1-3.2v-2.6h13.5v0.5h52v1.6h-52v0.5zm-66.9 0v-2.6h66.1v2.6zm0.5-3.1v-2.6h65.8v2.6zm0-3.1v-2.6h66v2.6zm66.4-0.1v-2.6h15.1v0.5l49.2 0.1v1.6l-49.2-0.1v0.5zm1.3-3v-2.6h15.9v0.5h47.6v1.6h-47.6v0.5zm-67.3 0v-2.6h64.7v2.6zm65.8-6.3v-2.6h14.6v0.5h47v1.6h-47v0.5zm-62.6 0v-2.6h60.4v2.6zm62.7-3.1v-2.6h12.4v0.5h49.6v1.6h-49.6v0.5zm-63.7 0v-2.6h63.3v2.6zm64.5-3.1v-2.6h13v0.5h40.1v1.6h-40.1v0.5zm-64.5 0v-2.6h61.6v2.6zm65.1-3.1v-2.6h12.2v0.5h46.8v1.6h-46.8v0.5zm-63.2 0v-2.6h58.5v2.6zm62.3-5.5 16.6-0.1v0.5l43.6-0.2v1.6l-43.5 0.2v0.5l-16.6 0.1zm-62.4 2.3v-2.6h59.4v2.6zm61.9-3.1v-2.6h16.6v0.5h43.9v1.6h-43.9v0.5zm-61.7 0v-2.6h57.2v2.6zm3.1-6.2v-2.6h56v2.6zm62-0.5v-1.6h54.1v1.6zm-61.6-2.6v-2.6h56.7v2.6zm62-0.5v-1.6h53.4v1.6zm-59.1-5.8v-2.6h52v2.6zm58.1-0.5v-1.6h51.2v1.6zm-57.6-2.6v-2.6h53.7v2.6zm55.4-0.5v-1.6h52.6v1.6zm-0.6-3.1v-1.6h53v1.6zm-48.4-2.7v-2.6h48.1v2.6zm48.5-0.5v-1.6h51.6v1.6zm-49-2.6v-2.6h45.1v2.6zm48.9-0.5v-1.6h48.2v1.6zm-49.4-2.6v-2.6h39.7v2.6zm50.6-2.1 47.5-0.2v1.6l-47.5 0.2zm-50.5-1v-2.6h41.6v2.6zm52.1-0.5v-1.6h45.4v1.6zm-49.7-2.6v-2.6h39.2v2.6zm51-0.5v-1.6h41.3v1.6zm-2.5-3.2v-1.6h42.3v1.6zm-46.1-2.6v-2.6h13.5v0.5h27.5v1.6h-27.5v0.5zm45.2-0.5v-1.6h42.3v1.6zm-0.3-3.1v-1.6h35.8v1.6zm-42.4 0v-1.6h40.4v1.6zm42.4-3.1v-1.6h34.4v1.6zm-37.4 0v-1.6h34.3v1.6zm40.4-3.2v-1.6h20.2v1.6zm-36.7 0v-1.6h28.4v1.6zm42.2-3.3v-1.6h12.2v1.6zm-32.6 0v-1.6h13.8v1.6z" fill="url(#a)"/>
					
					
					
					
					
					
					
					
					
					
					
					
					
					<linearGradient id="b" x1="291.73" x2="383.79" y1="91.248" y2="91.248" gradientUnits="userSpaceOnUse">
						<stop stop-color="#004F8C" offset="0"/>
						<stop stop-color="#00A1D9" offset=".4944"/>
						<stop stop-color="#c39" offset="1"/>
					</linearGradient>
					
					
					
					
					
					
					
					
					
					
					
					
					<path class="st5" d="m92.001 15.399a7.3 7.3 0 0 0-7.3008 7.3008 7.3 7.3 0 0 0 7.3008 7.3008 7.3 7.3 0 0 0 7.2988-7.3008 7.3 7.3 0 0 0-7.2988-7.3008zm18 0.60156a7.3 7.3 0 0 0-7.3008 7.2988 7.3 7.3 0 0 0 7.3008 7.3008 7.3 7.3 0 0 0 7.2988-7.3008 7.3 7.3 0 0 0-7.2988-7.2988zm-35.602 3.3984a7.3 7.3 0 0 0-7.2988 7.3008 7.3 7.3 0 0 0 7.2988 7.3008 7.3 7.3 0 0 0 7.3008-7.3008 7.3 7.3 0 0 0-7.3008-7.3008zm52.9 1.6016a7.3 7.3 0 0 0-7.2988 7.2988 7.3 7.3 0 0 0 7.2988 7.3008 7.3 7.3 0 0 0 7.3008-7.3008 7.3 7.3 0 0 0-7.3008-7.2988zm-69 6.5a7.3 7.3 0 0 0-7.2988 7.2988 7.3 7.3 0 0 0 7.2988 7.3008 7.3 7.3 0 0 0 7.3008-7.3008 7.3 7.3 0 0 0-7.3008-7.2988zm84.5 2.6992a7.3 7.3 0 0 0-7.2988 7.3008 7.3 7.3 0 0 0 7.2988 7.2988 7.3 7.3 0 0 0 7.3008-7.2988 7.3 7.3 0 0 0-7.3008-7.3008zm-98 9.1992a7.3 7.3 0 0 0-7.2988 7.3008 7.3 7.3 0 0 0 7.2988 7.3008 7.3 7.3 0 0 0 7.3008-7.3008 7.3 7.3 0 0 0-7.3008-7.3008zm110.8 3.6016a7.3 7.3 0 0 0-7.3008 7.2988 7.3 7.3 0 0 0 7.3008 7.3008 7.3 7.3 0 0 0 7.2988-7.3008 7.3 7.3 0 0 0-7.2988-7.2988zm-121 11.299a7.3 7.3 0 0 0-7.3008 7.3008 7.3 7.3 0 0 0 7.3008 7.2988 7.3 7.3 0 0 0 7.2988-7.2988 7.3 7.3 0 0 0-7.2988-7.3008zm130.1 4.2012a7.3 7.3 0 0 0-7.3008 7.2988 7.3 7.3 0 0 0 7.3008 7.3008 7.3 7.3 0 0 0 7.3008-7.3008 7.3 7.3 0 0 0-7.3008-7.2988zm-136.2 12.799a7.3 7.3 0 0 0-7.3008 7.3008 7.3 7.3 0 0 0 7.3008 7.2988 7.3 7.3 0 0 0 7.2988-7.2988 7.3 7.3 0 0 0-7.2988-7.3008zm141.3 4.5a7.3 7.3 0 0 0-7.2988 7.3008 7.3 7.3 0 0 0 7.2988 7.2988 7.3 7.3 0 0 0 7.3008-7.2988 7.3 7.3 0 0 0-7.3008-7.3008zm-143 13.5a7.3 7.3 0 0 0-7.2988 7.3008 7.3 7.3 0 0 0 7.2988 7.2988 7.3 7.3 0 0 0 7.3008-7.2988 7.3 7.3 0 0 0-7.3008-7.3008zm143.5 4.5996a7.3 7.3 0 0 0-7.2988 7.3008 7.3 7.3 0 0 0 7.2988 7.3008 7.3 7.3 0 0 0 7.3008-7.3008 7.3 7.3 0 0 0-7.3008-7.3008zm-140.7 13.201a7.3 7.3 0 0 0-7.3008 7.2988 7.3 7.3 0 0 0 7.3008 7.3008 7.3 7.3 0 0 0 7.2988-7.3008 7.3 7.3 0 0 0-7.2988-7.2988zm136.8 4.2988a7.3 7.3 0 0 0-7.2988 7.3008 7.3 7.3 0 0 0 7.2988 7.3008 7.3 7.3 0 0 0 7.3008-7.3008 7.3 7.3 0 0 0-7.3008-7.3008zm-129.6 12.201a7.3 7.3 0 0 0-7.2988 7.2988 7.3 7.3 0 0 0 7.2988 7.3008 7.3 7.3 0 0 0 7.3008-7.3008 7.3 7.3 0 0 0-7.3008-7.2988zm121.4 3.9004a7.3 7.3 0 0 0-7.3008 7.2988 7.3 7.3 0 0 0 7.3008 7.3008 7.3 7.3 0 0 0 7.3008-7.3008 7.3 7.3 0 0 0-7.3008-7.2988zm-110.4 10.398a7.3 7.3 0 0 0-7.2988 7.3008 7.3 7.3 0 0 0 7.2988 7.3008 7.3 7.3 0 0 0 7.3008-7.3008 7.3 7.3 0 0 0-7.3008-7.3008zm98.4 3.1016a7.3 7.3 0 0 0-7.3008 7.2988 7.3 7.3 0 0 0 7.3008 7.3008 7.3 7.3 0 0 0 7.3008-7.3008 7.3 7.3 0 0 0-7.3008-7.2988zm-84.1 7.8984a7.3 7.3 0 0 0-7.3008 7.3008 7.3 7.3 0 0 0 7.3008 7.3008 7.3 7.3 0 0 0 7.2988-7.3008 7.3 7.3 0 0 0-7.2988-7.3008zm69.199 2.2012a7.3 7.3 0 0 0-7.2988 7.2988 7.3 7.3 0 0 0 7.2988 7.3008 7.3 7.3 0 0 0 7.3008-7.3008 7.3 7.3 0 0 0-7.3008-7.2988zm-52.699 5a7.3 7.3 0 0 0-7.3008 7.2988 7.3 7.3 0 0 0 7.3008 7.3008 7.3 7.3 0 0 0 7.2988-7.3008 7.3 7.3 0 0 0-7.2988-7.2988zm35.799 1.0996a7.3 7.3 0 0 0-7.2988 7.3008 7.3 7.3 0 0 0 7.2988 7.2988 7.3 7.3 0 0 0 7.3008-7.2988 7.3 7.3 0 0 0-7.3008-7.3008zm-18 1.6992a7.3 7.3 0 0 0-7.2988 7.3008 7.3 7.3 0 0 0 7.2988 7.3008 7.3 7.3 0 0 0 7.3008-7.3008 7.3 7.3 0 0 0-7.3008-7.3008z" fill="#2f2933" opacity=".75"/>
				</g>

</svg>
