<?xml version="1.0" encoding="UTF-8"?>
<svg width="800" height="800" fill="#000000" version="1.1" viewBox="0 -.5 21 21" xmlns="http://www.w3.org/2000/svg">
 <path d="m8.4-2e-5c-1.1602 0-2.1 0.89504-2.1 2v2h-4.2c-1.1602 0-2.1 0.89502-2.1 2v12c0 1.105 0.93975 2 2.1 2h16.8c1.1602 0 2.1-0.89499 2.1-2v-12c0-1.105-0.93975-2-2.1-2h-4.2v-2c0-1.105-0.93975-2-2.1-2zm1.05 2h2.1c0.5796 0 1.05 0.44797 1.05 0.99997v1h-4.2v-1c0-0.552 0.4704-0.99997 1.05-0.99997zm1.05 6c0.5796 0 1.05 0.44801 1.05 1v2h2.1c0.5796 0 1.05 0.44796 1.05 0.99996s-0.4704 1-1.05 1h-2.1v2c0 0.552-0.4704 0.99996-1.05 0.99996s-1.05-0.44796-1.05-0.99996v-2h-2.1c-0.5796 0-1.05-0.44802-1.05-1s0.4704-0.99996 1.05-0.99996h2.1v-2c0-0.552 0.4704-1 1.05-1z"/>
</svg>
